<svg xmlns="http://www.w3.org/2000/svg" preserveAspectRatio="xMidYMid meet" viewBox="0 0 558 728">
  <ellipse fill="#000000" cx="149" cy="178" rx="4" ry="4"/>
  <ellipse fill="#000000" cx="231" cy="132" rx="4" ry="4"/>
  <path fill="none" stroke="#000000" stroke-width="3" d="m208,170c21,-37 -28,-21 -16,-6"/>
  <g transform="translate(0,728) scale(0.10000000149011612,-0.10000000149011612) " fill="#000000">
   <path d="m1975,7265c-370,-60 -751,-236 -1045,-483c-245,-205 -417,-468 -492,-752c-26,-97 -35,-288 -18,-361c38,-162 161,-271 308,-273c37,-1 83,2 103,7c33,7 37,5 62,-33l26,-40l-27,-6c-49,-12 -98,-42 -136,-84c-61,-67 -70,-113 -36,-179c39,-78 136,-131 237,-131c58,0 156,34 210,72l43,31l54,-27c30,-15 93,-40 140,-55l86,-28l-26,-24c-14,-13 -51,-64 -81,-114c-104,-168 -192,-259 -294,-304c-42,-19 -48,-19 -95,-5c-62,19 -146,20 -203,3c-58,-17 -141,-94 -177,-164c-29,-54 -30,-55 -74,-55c-53,-1 -113,-20 -142,-47c-43,-38 -147,-189 -159,-230c-16,-59 7,-119 67,-172c48,-42 107,-61 187,-61c40,0 43,-2 70,-49c37,-66 79,-101 123,-101c32,0 259,84 269,100c2,4 28,-1 57,-11c29,-10 60,-18 69,-19c11,0 20,-15 28,-46c7,-26 23,-68 36,-95c14,-27 25,-50 25,-51c0,-2 -24,-1 -52,2c-29,3 -79,2 -112,-2c-158,-21 -297,-159 -329,-327c-11,-56 -14,-61 -42,-67c-117,-24 -629,-145 -633,-149c-22,-21 50,-9 336,57l327,75l12,-66c7,-36 30,-101 51,-144l38,-77l-43,-80c-39,-70 -63,-98 -63,-72c0,18 -77,97 -124,127c-87,55 -164,78 -249,74c-60,-4 -82,-9 -115,-32c-82,-54 -162,-203 -170,-317c-9,-130 96,-366 213,-480c24,-23 35,-43 35,-63c0,-16 3,-27 8,-25c63,33 124,59 127,56c2,-2 -3,-31 -11,-63c-24,-96 -30,-343 -10,-458c40,-234 156,-460 310,-604c86,-81 172,-127 281,-150c189,-41 409,38 585,212c48,46 62,55 77,47c10,-5 59,-20 108,-32c125,-32 258,-32 340,0c63,24 77,25 190,15c122,-11 166,32 206,200c17,73 22,120 21,245c0,144 2,158 24,202l24,47l76,-54c112,-81 213,-128 285,-133c58,-4 60,-4 96,34c77,82 133,206 133,296l0,39l48,-39c100,-83 164,-94 285,-48c49,18 69,22 72,13c2,-7 6,-57 9,-112c13,-241 117,-489 257,-619c74,-69 122,-97 224,-132c73,-25 93,-27 235,-28c143,-1 165,2 285,32c148,37 195,61 284,146c155,148 283,413 355,736c100,451 27,806 -204,989l-49,39l31,6c58,12 171,6 227,-12c111,-34 164,-116 198,-305c18,-101 23,-334 10,-456l-9,-74l83,6c48,4 86,12 90,19c14,23 24,163 23,333c-1,196 -23,325 -78,460c-62,152 -175,293 -301,375c-60,39 -207,100 -243,100c-43,1 -44,10 -13,166c35,175 61,396 64,552c1,62 3,112 4,112c1,0 128,29 283,65c155,36 283,65 286,65c2,0 4,5 4,11c0,16 -29,10 -309,-54c-134,-32 -249,-57 -255,-57c-7,0 -19,32 -29,72c-53,227 -214,318 -616,348c-226,17 -515,-10 -755,-71c-43,-11 -81,-18 -84,-14c-3,3 -20,53 -38,113l-33,107l33,50c57,86 113,196 157,305c41,103 109,350 109,394c0,22 5,24 78,29c103,8 150,23 187,61c59,58 55,148 -11,224c-32,38 -34,43 -17,49c56,21 133,121 133,173c0,10 15,20 43,27c93,25 161,102 142,160c-12,34 -83,73 -133,73l-34,0l54,58c82,89 96,165 36,206c-32,23 -122,20 -177,-4c-24,-11 -45,-20 -47,-20c-2,0 6,17 19,38c55,90 63,154 23,191c-31,29 -113,31 -176,3c-55,-24 -159,-132 -211,-220l-36,-61l-12,41c-16,54 -91,133 -146,154c-61,23 -94,6 -118,-61c-27,-78 -20,-226 15,-293l26,-50l-41,19c-54,24 -84,24 -124,-1c-52,-31 -66,-70 -58,-159c12,-141 11,-152 -27,-233c-88,-187 -248,-371 -385,-442l-32,-16l33,58c85,150 156,381 181,585c7,53 12,63 59,110c60,60 86,126 86,217c0,119 -75,192 -200,194c-42,1 -60,5 -60,14c0,7 8,15 18,19c121,41 258,142 286,213c14,35 14,45 2,81c-56,161 -296,326 -583,401c-107,27 -136,31 -303,34c-129,2 -212,-1 -275,-11zm515,-35c221,-45 387,-128 521,-260c92,-90 119,-140 105,-195c-11,-44 -99,-121 -192,-167l-85,-42l-51,19c-43,15 -69,17 -167,12c-540,-30 -1303,-446 -1613,-882c-44,-61 -100,-167 -136,-256c-12,-30 -43,-39 -137,-39c-111,0 -213,68 -265,176c-71,146 -36,431 82,669c163,328 442,590 833,780c227,110 447,180 650,204c123,15 334,6 455,-19zm1551,-581c36,-36 12,-109 -74,-224c-25,-33 -43,-63 -41,-67c3,-5 25,6 50,22c122,84 229,103 266,46c28,-42 -22,-131 -113,-203c-32,-25 -59,-50 -59,-55c0,-5 16,-6 38,-1c121,26 213,-31 172,-107c-12,-22 -88,-64 -137,-74c-28,-6 -33,-13 -39,-44c-19,-105 -88,-159 -229,-182c-39,-6 -79,-20 -97,-33c-40,-29 -108,-28 -172,3c-27,13 -90,62 -140,110l-91,88l14,33c7,19 25,65 38,104l25,70l-43,84c-43,83 -44,86 -43,181c1,146 37,194 116,154c72,-36 112,-95 124,-183c6,-44 11,-54 40,-71c58,-37 79,-83 79,-178c0,-101 19,-106 23,-6c4,88 -16,143 -70,189c-39,33 -41,36 -29,62c20,44 96,154 142,207c76,86 202,123 250,75zm-1255,-94c32,-21 30,-34 -12,-84c-60,-69 -144,-130 -524,-376c-82,-53 -464,-286 -562,-343c-269,-157 -588,-290 -732,-308l-59,-7l7,29c35,144 222,382 431,551c360,290 869,517 1250,557c72,7 176,-2 201,-19zm190,-84c77,-35 106,-109 85,-214c-14,-64 -60,-140 -101,-164c-25,-14 -30,-25 -35,-72c-20,-174 -90,-422 -156,-552c-110,-219 -260,-374 -452,-465c-277,-131 -791,-116 -1056,32c-24,13 -47,24 -52,24c-5,0 -29,-15 -53,-34c-59,-44 -137,-70 -209,-69c-116,2 -219,81 -219,168c0,74 90,162 176,172c69,8 72,11 44,41c-14,15 -31,37 -37,49c-13,25 -11,26 79,38c160,21 495,175 865,398c494,297 808,505 916,608c59,56 64,59 113,59c28,0 69,-9 92,-19zm379,-297c64,-31 70,-39 56,-84c-7,-22 -21,-62 -32,-88c-21,-47 -21,-47 -36,-24c-17,24 -33,29 -33,10c0,-20 132,-170 191,-217c114,-92 220,-116 292,-67c45,31 138,44 174,25c37,-20 73,-88 73,-138c0,-35 -6,-49 -33,-76c-41,-41 -96,-57 -196,-56c-187,0 -370,116 -506,320c-79,120 -109,195 -109,277c-1,64 2,76 24,99c43,47 68,50 135,19zm-131,-311c15,-37 104,-160 160,-221c97,-104 218,-179 319,-197c27,-5 37,-12 37,-26c0,-10 -15,-79 -34,-152c-87,-336 -233,-602 -436,-790c-40,-37 -70,-72 -68,-78c5,-16 115,80 178,156c30,36 57,65 61,65c18,0 108,-359 141,-561c23,-140 38,-177 38,-93c0,45 1,46 28,39c45,-11 101,-53 108,-82c23,-90 -184,-287 -431,-411c-217,-108 -365,-108 -416,-1c-9,19 -49,149 -89,289c-68,238 -72,255 -55,265c10,5 36,25 57,44c48,42 62,91 55,194c-7,98 -36,160 -96,202c-38,27 -51,30 -119,31l-77,2l-88,243c-59,163 -84,245 -76,248c33,11 171,135 224,202c43,54 75,84 115,105c126,67 259,199 347,344c42,70 93,174 93,190c0,16 17,11 24,-7zm-748,-1097c47,-131 84,-239 82,-240c-2,-1 -50,-17 -108,-35c-58,-18 -175,-61 -260,-94c-152,-59 -210,-95 -210,-131c0,-10 -15,-17 -45,-22c-25,-3 -49,-4 -52,0c-10,9 41,253 82,396c54,190 83,259 108,264c94,18 170,41 236,69c42,18 77,33 78,32c2,-1 41,-108 89,-239zm-654,130c109,-1 198,-1 198,-2c0,0 -16,-47 -35,-105c-40,-115 -98,-339 -115,-439c-21,-126 -15,-117 -72,-124c-45,-6 -54,-4 -77,18c-35,34 -110,66 -160,68c-38,1 -40,3 -34,27c9,40 71,216 110,314c40,102 40,153 0,65c-33,-71 -137,-363 -137,-383c0,-8 -24,-26 -52,-41c-29,-14 -76,-48 -103,-75l-50,-49l-33,71c-32,69 -106,156 -161,190l-25,15l45,22c90,44 181,141 282,302c84,134 107,152 175,137c26,-5 136,-10 244,-11zm928,-401c69,-35 103,-108 104,-220c0,-91 -15,-130 -65,-166c-35,-25 -58,-28 -427,-64c-281,-27 -307,-25 -346,28c-17,23 -21,43 -21,107c0,73 2,81 28,108c30,31 164,88 387,164c196,67 273,77 340,43zm1708,-5c386,-42 522,-170 522,-495c0,-171 -38,-480 -83,-675l-12,-55l-90,-1c-147,-3 -225,-12 -327,-39c-208,-54 -390,-157 -550,-314c-38,-36 -68,-63 -68,-61c0,3 7,40 15,83c29,154 9,315 -59,468c-6,14 3,18 60,24c37,4 73,9 81,12c54,21 -62,154 -150,172c-25,5 -38,19 -68,71l-38,64l30,33c41,47 61,90 61,132c0,30 -7,42 -41,72c-23,21 -60,41 -85,48c-47,12 -46,10 -62,106c-3,22 -17,89 -30,148c-14,59 -22,112 -19,117c11,18 247,65 470,93c67,9 352,6 443,-3zm-3483,-36c118,-30 202,-100 261,-218c56,-112 51,-120 -91,-146c-60,-11 -112,-20 -115,-20c-3,0 -33,33 -66,74c-32,41 -67,79 -77,86c-20,12 -154,30 -229,30l-47,0l21,38c88,152 187,197 343,156zm682,-197c55,-29 63,-42 29,-51c-104,-26 -76,-176 33,-176l41,0l0,-40c0,-48 -35,-90 -74,-90c-14,0 -27,-3 -30,-8c-2,-4 -12,-82 -22,-174l-18,-167l-90,-3c-50,-2 -92,-3 -94,-2c-2,1 18,199 33,325l5,46l-60,22c-39,15 -78,38 -107,67c-26,24 -48,44 -50,44c-10,0 0,-31 17,-53c11,-14 20,-27 20,-30c0,-3 -21,-8 -47,-12c-27,-4 -117,-20 -201,-36c-172,-32 -187,-30 -198,26c-12,64 -4,67 255,112l163,28l50,63c48,59 109,110 160,132c38,16 134,4 185,-23zm-858,-33c29,-2 61,-9 71,-14c20,-10 125,-139 119,-145c-2,-2 -31,-8 -63,-14c-86,-16 -106,-32 -106,-85c0,-24 9,-63 20,-87c11,-24 20,-56 20,-71c0,-25 -6,-29 -70,-49c-41,-12 -81,-18 -95,-15c-33,8 -77,71 -112,157c-15,38 -32,67 -38,65c-5,-2 -8,-12 -7,-22c3,-15 42,-103 70,-156c2,-5 -43,-8 -100,-8c-121,0 -170,17 -213,74c-34,45 -44,110 -22,152c28,53 137,188 165,203c51,28 172,33 361,15zm1168,-64c1,-33 1,-60 0,-60c-1,0 -57,-11 -123,-24c-146,-28 -171,-26 -191,21c-12,31 -12,38 1,58c8,13 30,26 48,30c47,11 198,32 233,34c30,1 30,1 32,-59zm46,-116c45,-49 72,-51 374,-20c292,30 343,32 343,12c0,-31 143,-514 163,-550c31,-56 76,-76 165,-76c149,0 395,117 562,267c43,39 55,45 62,33c5,-8 22,-39 39,-67c20,-37 36,-53 50,-53c33,0 93,-36 133,-80c20,-22 34,-44 32,-49c-3,-4 -58,-11 -123,-14c-66,-4 -140,-14 -168,-23c-28,-9 -119,-60 -203,-113c-194,-122 -317,-197 -467,-282c-133,-76 -110,-72 -345,-69c-190,2 -437,48 -600,110l-80,31l-15,52c-27,94 -64,282 -81,408c-20,144 -24,443 -7,474c10,17 41,28 125,44c4,0 23,-15 41,-35zm-197,-207c0,-223 20,-384 73,-599c15,-65 26,-118 24,-118c-2,0 -21,10 -42,22c-38,22 -38,22 -44,99c-9,112 -35,218 -61,244c-12,12 -44,30 -71,40c-28,10 -51,19 -53,21c-7,4 32,310 41,322c5,6 17,12 26,12c10,0 30,13 46,30c23,24 28,39 29,80c1,37 5,50 16,50c13,0 15,-29 16,-203zm-448,94c18,-8 31,-18 29,-25c-60,-151 -81,-196 -92,-196c-6,0 -26,5 -43,11l-32,11l20,28c30,43 50,96 52,138c1,33 15,57 28,49c3,-2 20,-9 38,-16zm-88,-25c0,-48 -58,-155 -99,-183c-38,-26 -100,-30 -160,-12l-36,11l-2,79c-3,74 -2,79 20,84c25,6 258,53 270,54c4,1 7,-14 7,-33zm144,-191c-10,-100 -23,-178 -28,-180c-86,-23 -104,-36 -129,-93c-37,-83 -67,-196 -74,-282l-6,-75l-56,28c-104,51 -216,46 -262,-11c-18,-24 -20,-35 -14,-94c6,-66 5,-69 -33,-134c-40,-66 -40,-66 -55,-43c-53,82 -83,224 -66,315c39,211 232,344 443,305c33,-6 62,-9 64,-6c3,3 -11,38 -30,78c-20,39 -41,89 -47,110c-8,33 -7,39 7,44c9,3 31,12 48,20c24,12 35,13 52,4c28,-15 87,-14 100,2c5,6 27,56 48,110c23,59 41,94 47,88c5,-5 2,-78 -9,-186zm-469,118c3,-21 8,-47 10,-59c3,-11 -1,-28 -8,-37c-13,-18 -104,-61 -204,-97c-55,-20 -66,-21 -94,-10c-31,13 -89,90 -89,118c0,17 63,8 94,-14c28,-19 72,-18 149,6c73,23 84,38 68,95l-9,35l38,0c37,0 39,-2 45,-37zm673,-313c24,-6 62,-19 86,-31c40,-18 44,-24 60,-82c34,-126 39,-272 15,-393l-10,-51l-59,24c-109,44 -300,59 -462,38l-48,-7l0,55c0,112 60,354 100,402c10,12 101,40 160,49c49,7 116,5 158,-4zm2166,-152c77,-174 76,-441 -2,-595c-79,-157 -202,-337 -352,-518c-104,-125 -307,-345 -319,-345c-5,0 -12,23 -15,52c-11,78 -73,261 -123,363c-93,188 -232,334 -398,419c-64,33 -67,36 -44,44c193,74 473,224 784,420c260,165 289,181 345,196c92,25 98,23 124,-36zm1082,-139c93,-13 212,-54 290,-100c86,-50 201,-170 253,-262c92,-164 134,-343 134,-577c0,-118 -15,-297 -26,-305c-1,-1 -27,-5 -57,-8l-56,-5l0,231c0,247 -9,319 -54,441c-46,120 -146,179 -305,179c-385,0 -737,-361 -911,-936l-18,-59l-56,7c-123,15 -418,84 -477,111c-47,23 -67,70 -58,139c21,164 208,582 323,724c102,125 272,256 422,324c197,89 405,123 596,96zm-3796,-121c44,-13 87,-43 101,-71c10,-18 8,-24 -15,-42c-15,-12 -33,-39 -40,-60c-12,-32 -21,-41 -68,-60c-70,-29 -175,-90 -256,-150l-64,-46l38,68c21,37 53,92 72,122c33,53 41,98 28,166c-3,17 7,49 20,63c1,2 20,10 41,17c38,14 79,12 143,-7zm828,-12c124,-63 333,-122 514,-146c42,-5 141,-13 219,-16l142,-7l-54,-28c-116,-61 -255,-109 -312,-109c-31,0 -83,-9 -118,-19c-73,-23 -74,-23 -195,67c-72,54 -176,153 -237,226c-15,18 -26,25 -31,18c-16,-26 160,-202 299,-297l73,-51l-37,-30c-28,-23 -183,-94 -207,-94c-2,0 -15,22 -28,48c-14,27 -40,69 -60,94c-28,38 -34,55 -34,93c0,32 -7,57 -21,75c-19,27 -19,30 -4,119c9,50 18,91 20,91c2,0 34,-15 71,-34zm-263,-111c125,-33 175,-74 175,-140l0,-26l-32,25c-94,71 -220,108 -368,108c-82,-1 -217,-20 -267,-39c-13,-5 -14,-3 0,24c22,42 37,51 98,62c79,14 322,6 394,-14zm-80,-70c80,-17 173,-60 227,-105c48,-40 120,-148 159,-241c30,-71 72,-200 66,-205c-2,-2 -23,4 -47,13c-29,11 -84,18 -155,20c-60,1 -132,7 -158,13c-230,49 -460,-88 -657,-393c-32,-48 -74,-123 -95,-166l-38,-80l-56,56c-119,120 -255,181 -381,170c-37,-3 -84,-13 -105,-21c-21,-9 -40,-14 -42,-12c-8,8 39,133 84,221c151,302 478,596 773,695c147,50 297,62 425,35zm-1162,-125c81,-25 176,-88 216,-142l30,-41l-72,-81c-40,-45 -82,-93 -93,-108l-22,-28l-88,89c-104,103 -169,135 -261,129c-29,-2 -53,-2 -53,0c0,14 48,91 78,124c70,78 147,94 265,58zm2131,-49c217,-98 379,-282 479,-546c94,-245 109,-442 45,-570c-42,-82 -99,-154 -128,-160c-58,-13 -181,38 -299,124c-36,25 -69,49 -75,53c-11,8 8,39 83,132c61,76 69,74 70,-16c1,-29 6,-48 12,-48c18,0 4,169 -21,265c-27,104 -116,284 -178,360c-27,34 -75,79 -107,100c-54,38 -62,40 -129,40c-64,0 -77,-3 -109,-28c-37,-28 -47,-47 -26,-47c6,0 24,11 40,25c38,31 90,41 140,26l40,-12l-60,-77c-33,-42 -71,-90 -84,-106l-24,-29l-54,44c-30,24 -65,51 -77,59c-92,60 20,314 173,393c101,52 200,59 289,18zm2391,11c97,-59 205,-224 240,-367c51,-208 34,-462 -51,-757c-109,-381 -297,-645 -501,-704c-222,-65 -418,138 -487,505c-18,96 -40,345 -32,366c3,8 16,15 29,15c21,0 27,12 62,122c46,142 141,343 216,455c98,147 266,296 404,359c61,28 82,29 120,6zm-4685,-199c53,-25 200,-160 200,-183c0,-5 -16,-35 -37,-67c-45,-71 -121,-230 -129,-272c-4,-17 -10,-34 -15,-37c-14,-8 -106,116 -153,206c-71,136 -94,242 -71,330c8,33 17,46 36,52c39,12 110,0 169,-29zm3354,-188c-19,-47 -45,-124 -59,-172c-14,-48 -30,-92 -34,-96c-11,-11 -146,-15 -156,-5c-4,4 27,46 69,94c42,48 107,127 144,176c37,48 68,88 69,88c1,0 -14,-38 -33,-85zm-1143,8c94,-88 185,-250 224,-399c8,-32 15,-67 15,-79c0,-11 -28,-54 -62,-95c-34,-41 -83,-108 -109,-149l-47,-73l-11,38c-6,22 -11,44 -11,51c0,6 -16,65 -36,130c-41,135 -107,282 -160,354c-41,57 -48,38 61,178c39,49 74,90 78,90c4,1 30,-20 58,-46zm-787,10c5,-3 -16,-19 -47,-34c-80,-41 -170,-128 -207,-201c-16,-34 -30,-67 -30,-73c0,-7 -12,-15 -27,-18c-45,-9 -120,-65 -158,-117c-81,-111 -119,-238 -113,-379c5,-120 26,-169 107,-253c33,-35 85,-92 114,-128c29,-36 79,-85 110,-110l56,-45l-22,-18c-86,-68 -238,-104 -323,-77c-148,49 -274,256 -313,517c-12,77 -13,283 -2,321l6,24l24,-26c14,-14 28,-26 31,-26c4,0 26,39 49,87c93,192 248,389 375,476c63,42 133,73 201,87c40,9 151,4 169,-7zm256,-19c165,-37 314,-181 405,-391c51,-118 102,-298 121,-424c28,-193 9,-411 -47,-523c-30,-61 -100,-87 -176,-67l-42,11l78,78c159,158 162,267 9,368c-42,28 -68,52 -68,64c0,30 -51,171 -90,250c-106,211 -301,382 -529,464l-93,33l54,43c53,43 152,94 198,103c52,9 113,6 180,-9zm-307,-209c268,-114 449,-314 542,-599c14,-44 24,-81 22,-82c-2,-2 -44,12 -93,32c-147,60 -401,143 -471,154c-35,6 -80,8 -98,4c-30,-5 -35,-3 -50,26c-90,173 -97,354 -19,473c23,35 28,38 57,32c18,-4 67,-22 110,-40zm1897,-118c0,-15 7,-41 15,-57c11,-21 13,-48 8,-110c-5,-68 -10,-84 -28,-96c-35,-23 -135,-54 -175,-54c-59,0 -210,100 -210,139c0,9 43,58 95,111l95,95l100,0l100,0l0,-28zm-2141,-79c0,-81 17,-156 56,-243c14,-32 25,-59 25,-60c0,-2 -18,-12 -40,-24c-39,-20 -42,-21 -65,-4c-13,10 -25,20 -25,24c0,3 16,20 35,39c33,32 45,60 26,60c-5,0 -18,-11 -28,-24c-10,-13 -53,-63 -96,-110c-43,-47 -76,-90 -72,-96c5,-8 11,-8 20,0c10,9 20,7 39,-5l25,-17l-29,-55c-17,-31 -30,-70 -30,-86l0,-31l-29,28c-42,40 -72,117 -78,200c-13,170 93,402 209,459c54,27 57,24 57,-55zm-834,7c69,-18 155,-63 209,-108l38,-32l2,-210c2,-243 14,-304 93,-463c56,-114 124,-191 201,-229c104,-51 238,-31 363,53l50,34l41,-21l40,-21l-38,-40c-83,-86 -233,-175 -341,-203c-75,-20 -205,-19 -274,1c-320,93 -571,545 -545,982c7,123 32,242 54,260c20,16 35,15 107,-3zm3068,-50c40,-17 295,-78 400,-96l67,-11l0,-67c1,-367 118,-689 293,-802c33,-21 68,-39 79,-39c10,0 18,-4 18,-9c0,-13 -119,-26 -230,-25c-279,4 -478,142 -589,407c-58,140 -90,305 -91,467c0,76 9,190 15,190c1,0 19,-7 38,-15zm-1778,-340c201,-68 382,-143 437,-181l39,-27l-70,-37c-87,-46 -172,-111 -216,-164c-54,-67 -103,-146 -122,-198l-17,-49l-51,7c-234,31 -412,137 -552,328c-41,55 -44,64 -38,100c9,58 52,130 113,193c78,79 117,95 222,90c70,-4 114,-15 255,-62zm520,-270c30,-65 -3,-141 -107,-244c-82,-81 -180,-131 -272,-138l-67,-6l11,29c58,151 205,307 351,374c59,26 64,26 84,-15z"/>
   <path d="m2487,5793c-4,-3 -7,-19 -7,-34c0,-41 -38,-156 -73,-224c-63,-117 -180,-207 -305,-234c-108,-23 -253,-9 -402,38c-72,23 -90,25 -90,12c0,-5 28,-19 63,-30c221,-74 441,-69 580,12c64,38 151,137 187,213c39,80 78,230 64,244c-6,6 -13,7 -17,3z"/>
   <path d="m2215,4896c-79,-34 -113,-128 -77,-209c24,-55 58,-79 120,-84c57,-6 107,23 134,77c39,76 6,178 -66,211c-48,22 -70,23 -111,5zm122,-40c83,-70 46,-216 -58,-232c-40,-7 -96,26 -116,66c-28,55 -9,141 39,174c35,25 101,20 135,-8z"/>
   <path d="m4133,4280c-65,-10 -86,-17 -79,-29c3,-5 24,-5 48,0c79,15 199,10 243,-10c91,-42 110,-92 109,-286c-2,-149 -36,-457 -68,-610c-8,-38 -12,-73 -10,-77c12,-19 23,7 38,89c51,283 80,666 57,759c-18,72 -55,122 -107,145c-51,23 -155,32 -231,19z"/>
   <path d="m1455,2610c-96,-26 -233,-97 -340,-177c-115,-86 -340,-306 -330,-322c5,-8 42,23 109,91c154,156 279,254 411,321c223,112 388,111 557,-6c28,-19 35,3 8,24c-106,84 -262,110 -415,69z"/>
   <path d="m4800,2181c-148,-45 -262,-245 -247,-433c19,-234 232,-266 368,-56c70,109 99,262 68,371c-14,51 -63,104 -107,117c-42,11 -47,11 -82,1zm100,-38c91,-53 104,-234 28,-393c-32,-65 -124,-154 -173,-166c-106,-27 -179,55 -178,201c2,227 191,437 323,358z"/>
   <path d="m4739,1993c-69,-58 -94,-193 -46,-249c69,-80 191,23 192,163c0,51 -4,66 -24,87c-33,35 -79,35 -122,-1zm91,-3c56,-30 38,-167 -30,-223c-36,-30 -57,-34 -86,-13c-15,11 -19,26 -19,73c0,70 26,128 69,154c36,22 41,23 66,9z"/>
   <path d="m3326,534c-1221,-283 -2221,-516 -2224,-519c-3,-3 -2,-8 2,-12c10,-10 4469,1022 4474,1035c2,7 -5,12 -15,11c-10,-1 -1017,-232 -2237,-515z"/>
  </g>
</svg>